<?xml version="1.0" encoding="UTF-8" standalone="no"?><svg xmlns="http://www.w3.org/2000/svg" xmlns:xlink="http://www.w3.org/1999/xlink" contentScriptType="application/ecmascript" contentStyleType="text/css" height="151px" preserveAspectRatio="none" style="width:262px;height:151px;" version="1.1" viewBox="0 0 262 151" width="262px" zoomAndPan="magnify"><defs><filter height="300%" id="f7lsglg" width="300%" x="-1" y="-1"><feGaussianBlur result="blurOut" stdDeviation="2.0"/><feColorMatrix in="blurOut" result="blurOut2" type="matrix" values="0 0 0 0 0 0 0 0 0 0 0 0 0 0 0 0 0 0 .4 0"/><feOffset dx="4.0" dy="4.0" in="blurOut2" result="blurOut3"/><feBlend in="SourceGraphic" in2="blurOut3" mode="normal"/></filter></defs><g><rect fill="#FFFFFF" filter="url(#f7lsglg)" height="92.0547" style="stroke: #A80036; stroke-width: 1.0;" width="10" x="34.5" y="49.6094"/><rect fill="#FFFFFF" filter="url(#f7lsglg)" height="70.0547" style="stroke: #A80036; stroke-width: 1.0;" width="10" x="127.5" y="71.6094"/><rect fill="#FFFFFF" filter="url(#f7lsglg)" height="39.7031" style="stroke: #A80036; stroke-width: 1.0;" width="10" x="220.5" y="101.9609"/><line style="stroke: #A80036; stroke-width: 1.0; stroke-dasharray: 5.0,5.0;" x1="39" x2="39" y1="39.6094" y2="150.6641"/><line style="stroke: #A80036; stroke-width: 1.0; stroke-dasharray: 5.0,5.0;" x1="132" x2="132" y1="39.6094" y2="150.6641"/><line style="stroke: #A80036; stroke-width: 1.0; stroke-dasharray: 5.0,5.0;" x1="225" x2="225" y1="39.6094" y2="150.6641"/><rect fill="#FEFECE" filter="url(#f7lsglg)" height="31.6094" style="stroke: #A80036; stroke-width: 1.5;" width="59" x="8" y="3"/><text fill="#000000" font-family="sans-serif" font-size="14" lengthAdjust="spacingAndGlyphs" textLength="45" x="15" y="24.5332">Actor 1</text><rect fill="#FEFECE" filter="url(#f7lsglg)" height="31.6094" style="stroke: #A80036; stroke-width: 1.5;" width="59" x="101" y="3"/><text fill="#000000" font-family="sans-serif" font-size="14" lengthAdjust="spacingAndGlyphs" textLength="45" x="108" y="24.5332">Actor 2</text><rect fill="#FEFECE" filter="url(#f7lsglg)" height="31.6094" style="stroke: #A80036; stroke-width: 1.5;" width="59" x="194" y="3"/><text fill="#000000" font-family="sans-serif" font-size="14" lengthAdjust="spacingAndGlyphs" textLength="45" x="201" y="24.5332">Actor 3</text><rect fill="#FFFFFF" filter="url(#f7lsglg)" height="92.0547" style="stroke: #A80036; stroke-width: 1.0;" width="10" x="34.5" y="49.6094"/><rect fill="#FFFFFF" filter="url(#f7lsglg)" height="70.0547" style="stroke: #A80036; stroke-width: 1.0;" width="10" x="127.5" y="71.6094"/><rect fill="#FFFFFF" filter="url(#f7lsglg)" height="39.7031" style="stroke: #A80036; stroke-width: 1.0;" width="10" x="220.5" y="101.9609"/><polygon fill="#A80036" points="115.5,67.6094,125.5,71.6094,115.5,75.6094,119.5,71.6094" style="stroke: #A80036; stroke-width: 1.0;"/><line style="stroke: #A80036; stroke-width: 1.0;" x1="44.5" x2="121.5" y1="71.6094" y2="71.6094"/><text fill="#000000" font-family="sans-serif" font-size="13" lengthAdjust="spacingAndGlyphs" textLength="64" x="51.5" y="67.1045">Message 1</text><polygon fill="#A80036" points="208.5,97.9609,218.5,101.9609,208.5,105.9609,212.5,101.9609" style="stroke: #A80036; stroke-width: 1.0;"/><line style="stroke: #A80036; stroke-width: 1.0;" x1="137.5" x2="214.5" y1="101.9609" y2="101.9609"/><text fill="#000000" font-family="sans-serif" font-size="13" lengthAdjust="spacingAndGlyphs" textLength="64" x="144.5" y="97.4561">Message 2</text><polygon fill="#A80036" points="55.5,128.3125,45.5,132.3125,55.5,136.3125,51.5,132.3125" style="stroke: #A80036; stroke-width: 1.0;"/><line style="stroke: #A80036; stroke-width: 1.0;" x1="49.5" x2="219.5" y1="132.3125" y2="132.3125"/><text fill="#000000" font-family="sans-serif" font-size="13" lengthAdjust="spacingAndGlyphs" textLength="64" x="61.5" y="127.8076">Message 3</text></g></svg>